<mxfile host="app.diagrams.net" agent="Mozilla/5.0 (Windows NT 10.0; Win64; x64) AppleWebKit/537.36 (KHTML, like Gecko) Chrome/128.0.0.0 Safari/537.36 OPR/114.0.0.0" version="25.0.3">
  <diagram name="PÃ¡gina-1" id="8gOijgAzSB16o9A3isOE">
    <mxGraphModel dx="1393" dy="763" grid="1" gridSize="10" guides="1" tooltips="1" connect="1" arrows="1" fold="1" page="1" pageScale="1" pageWidth="827" pageHeight="1169" math="0" shadow="0">
      <root>
        <mxCell id="0" />
        <mxCell id="1" parent="0" />
        <mxCell id="BIx6RFWFegddTs1Po2Gy-1" value="INICIO" style="strokeWidth=2;html=1;shape=mxgraph.flowchart.start_1;whiteSpace=wrap;" vertex="1" parent="1">
          <mxGeometry x="364" y="20" width="100" height="60" as="geometry" />
        </mxCell>
        <mxCell id="BIx6RFWFegddTs1Po2Gy-2" value="FIM" style="strokeWidth=2;html=1;shape=mxgraph.flowchart.start_1;whiteSpace=wrap;" vertex="1" parent="1">
          <mxGeometry x="361" y="950" width="100" height="60" as="geometry" />
        </mxCell>
        <mxCell id="BIx6RFWFegddTs1Po2Gy-15" style="edgeStyle=orthogonalEdgeStyle;rounded=0;orthogonalLoop=1;jettySize=auto;html=1;" edge="1" parent="1" source="BIx6RFWFegddTs1Po2Gy-3" target="BIx6RFWFegddTs1Po2Gy-13">
          <mxGeometry relative="1" as="geometry" />
        </mxCell>
        <mxCell id="BIx6RFWFegddTs1Po2Gy-3" value="capitalInicial" style="html=1;strokeWidth=2;shape=manualInput;whiteSpace=wrap;rounded=1;size=26;arcSize=11;" vertex="1" parent="1">
          <mxGeometry x="364" y="110" width="100" height="60" as="geometry" />
        </mxCell>
        <mxCell id="BIx6RFWFegddTs1Po2Gy-21" style="edgeStyle=orthogonalEdgeStyle;rounded=0;orthogonalLoop=1;jettySize=auto;html=1;entryX=0.5;entryY=0;entryDx=0;entryDy=0;" edge="1" parent="1" source="BIx6RFWFegddTs1Po2Gy-5" target="BIx6RFWFegddTs1Po2Gy-20">
          <mxGeometry relative="1" as="geometry" />
        </mxCell>
        <mxCell id="BIx6RFWFegddTs1Po2Gy-5" value="meses" style="html=1;strokeWidth=2;shape=manualInput;whiteSpace=wrap;rounded=1;size=26;arcSize=11;" vertex="1" parent="1">
          <mxGeometry x="364" y="280" width="100" height="60" as="geometry" />
        </mxCell>
        <mxCell id="BIx6RFWFegddTs1Po2Gy-7" value="taxaJuros" style="html=1;strokeWidth=2;shape=manualInput;whiteSpace=wrap;rounded=1;size=26;arcSize=11;" vertex="1" parent="1">
          <mxGeometry x="364" y="480" width="100" height="60" as="geometry" />
        </mxCell>
        <mxCell id="BIx6RFWFegddTs1Po2Gy-23" style="edgeStyle=orthogonalEdgeStyle;rounded=0;orthogonalLoop=1;jettySize=auto;html=1;entryX=0;entryY=0.5;entryDx=0;entryDy=0;" edge="1" parent="1" source="BIx6RFWFegddTs1Po2Gy-9" target="BIx6RFWFegddTs1Po2Gy-11">
          <mxGeometry relative="1" as="geometry" />
        </mxCell>
        <mxCell id="BIx6RFWFegddTs1Po2Gy-24" value="V" style="edgeLabel;html=1;align=center;verticalAlign=middle;resizable=0;points=[];" vertex="1" connectable="0" parent="BIx6RFWFegddTs1Po2Gy-23">
          <mxGeometry x="-0.0612" y="2" relative="1" as="geometry">
            <mxPoint as="offset" />
          </mxGeometry>
        </mxCell>
        <mxCell id="BIx6RFWFegddTs1Po2Gy-9" value="quantidadeMeses &amp;gt; 0" style="strokeWidth=2;html=1;shape=mxgraph.flowchart.decision;whiteSpace=wrap;" vertex="1" parent="1">
          <mxGeometry x="346" y="580" width="136" height="80" as="geometry" />
        </mxCell>
        <mxCell id="BIx6RFWFegddTs1Po2Gy-10" style="edgeStyle=orthogonalEdgeStyle;rounded=0;orthogonalLoop=1;jettySize=auto;html=1;entryX=0.5;entryY=0;entryDx=0;entryDy=0;entryPerimeter=0;" edge="1" parent="1" source="BIx6RFWFegddTs1Po2Gy-7" target="BIx6RFWFegddTs1Po2Gy-9">
          <mxGeometry relative="1" as="geometry" />
        </mxCell>
        <mxCell id="BIx6RFWFegddTs1Po2Gy-19" style="edgeStyle=orthogonalEdgeStyle;rounded=0;orthogonalLoop=1;jettySize=auto;html=1;entryX=0.5;entryY=0;entryDx=0;entryDy=0;" edge="1" parent="1" source="BIx6RFWFegddTs1Po2Gy-11" target="BIx6RFWFegddTs1Po2Gy-18">
          <mxGeometry relative="1" as="geometry" />
        </mxCell>
        <mxCell id="BIx6RFWFegddTs1Po2Gy-11" value="capitalFinal += (capitalFinal * taxaJuros)" style="rounded=1;whiteSpace=wrap;html=1;absoluteArcSize=1;arcSize=14;strokeWidth=2;" vertex="1" parent="1">
          <mxGeometry x="580" y="590" width="240" height="60" as="geometry" />
        </mxCell>
        <mxCell id="BIx6RFWFegddTs1Po2Gy-13" value="capitalFinal = capitalInicial" style="rounded=1;whiteSpace=wrap;html=1;absoluteArcSize=1;arcSize=14;strokeWidth=2;" vertex="1" parent="1">
          <mxGeometry x="339" y="200" width="150" height="60" as="geometry" />
        </mxCell>
        <mxCell id="BIx6RFWFegddTs1Po2Gy-14" style="edgeStyle=orthogonalEdgeStyle;rounded=0;orthogonalLoop=1;jettySize=auto;html=1;entryX=0.5;entryY=0.183;entryDx=0;entryDy=0;entryPerimeter=0;" edge="1" parent="1" source="BIx6RFWFegddTs1Po2Gy-1" target="BIx6RFWFegddTs1Po2Gy-3">
          <mxGeometry relative="1" as="geometry" />
        </mxCell>
        <mxCell id="BIx6RFWFegddTs1Po2Gy-16" style="edgeStyle=orthogonalEdgeStyle;rounded=0;orthogonalLoop=1;jettySize=auto;html=1;entryX=0.5;entryY=0.233;entryDx=0;entryDy=0;entryPerimeter=0;" edge="1" parent="1" source="BIx6RFWFegddTs1Po2Gy-13" target="BIx6RFWFegddTs1Po2Gy-5">
          <mxGeometry relative="1" as="geometry" />
        </mxCell>
        <mxCell id="BIx6RFWFegddTs1Po2Gy-18" value="Decrementa quantidadeMeses" style="rounded=1;whiteSpace=wrap;html=1;absoluteArcSize=1;arcSize=14;strokeWidth=2;" vertex="1" parent="1">
          <mxGeometry x="645" y="710" width="110" height="50" as="geometry" />
        </mxCell>
        <mxCell id="BIx6RFWFegddTs1Po2Gy-20" value="quantidadeMeses = meses" style="rounded=1;whiteSpace=wrap;html=1;absoluteArcSize=1;arcSize=14;strokeWidth=2;" vertex="1" parent="1">
          <mxGeometry x="339" y="390" width="150" height="60" as="geometry" />
        </mxCell>
        <mxCell id="BIx6RFWFegddTs1Po2Gy-22" style="edgeStyle=orthogonalEdgeStyle;rounded=0;orthogonalLoop=1;jettySize=auto;html=1;entryX=0.5;entryY=0.25;entryDx=0;entryDy=0;entryPerimeter=0;" edge="1" parent="1" source="BIx6RFWFegddTs1Po2Gy-20" target="BIx6RFWFegddTs1Po2Gy-7">
          <mxGeometry relative="1" as="geometry" />
        </mxCell>
        <mxCell id="BIx6RFWFegddTs1Po2Gy-25" value="&quot;-----------------&quot;&lt;div&gt;&quot;-- Resultados--&quot;&lt;/div&gt;&lt;div&gt;&quot;-----------------&quot;&lt;br&gt;&lt;/div&gt;" style="strokeWidth=2;html=1;shape=mxgraph.flowchart.display;whiteSpace=wrap;" vertex="1" parent="1">
          <mxGeometry x="80" y="680" width="140" height="80" as="geometry" />
        </mxCell>
        <mxCell id="BIx6RFWFegddTs1Po2Gy-26" style="edgeStyle=orthogonalEdgeStyle;rounded=0;orthogonalLoop=1;jettySize=auto;html=1;entryX=0.5;entryY=0;entryDx=0;entryDy=0;entryPerimeter=0;" edge="1" parent="1" source="BIx6RFWFegddTs1Po2Gy-9" target="BIx6RFWFegddTs1Po2Gy-25">
          <mxGeometry relative="1" as="geometry" />
        </mxCell>
        <mxCell id="BIx6RFWFegddTs1Po2Gy-27" value="F" style="edgeLabel;html=1;align=center;verticalAlign=middle;resizable=0;points=[];" vertex="1" connectable="0" parent="BIx6RFWFegddTs1Po2Gy-26">
          <mxGeometry x="-0.5312" y="1" relative="1" as="geometry">
            <mxPoint as="offset" />
          </mxGeometry>
        </mxCell>
        <mxCell id="BIx6RFWFegddTs1Po2Gy-30" style="edgeStyle=orthogonalEdgeStyle;rounded=0;orthogonalLoop=1;jettySize=auto;html=1;" edge="1" parent="1" source="BIx6RFWFegddTs1Po2Gy-28" target="BIx6RFWFegddTs1Po2Gy-2">
          <mxGeometry relative="1" as="geometry" />
        </mxCell>
        <mxCell id="BIx6RFWFegddTs1Po2Gy-28" value="capitalInicial&lt;div&gt;meses&lt;/div&gt;&lt;div&gt;taxaJuros&lt;/div&gt;&lt;div&gt;capitalFinal&lt;/div&gt;" style="strokeWidth=2;html=1;shape=mxgraph.flowchart.display;whiteSpace=wrap;" vertex="1" parent="1">
          <mxGeometry x="346" y="810" width="130" height="80" as="geometry" />
        </mxCell>
        <mxCell id="BIx6RFWFegddTs1Po2Gy-29" style="edgeStyle=orthogonalEdgeStyle;rounded=0;orthogonalLoop=1;jettySize=auto;html=1;entryX=0;entryY=0.5;entryDx=0;entryDy=0;entryPerimeter=0;" edge="1" parent="1" source="BIx6RFWFegddTs1Po2Gy-25" target="BIx6RFWFegddTs1Po2Gy-28">
          <mxGeometry relative="1" as="geometry">
            <Array as="points">
              <mxPoint x="150" y="850" />
            </Array>
          </mxGeometry>
        </mxCell>
        <mxCell id="BIx6RFWFegddTs1Po2Gy-31" style="edgeStyle=orthogonalEdgeStyle;rounded=0;orthogonalLoop=1;jettySize=auto;html=1;entryX=0.5;entryY=1;entryDx=0;entryDy=0;entryPerimeter=0;" edge="1" parent="1" source="BIx6RFWFegddTs1Po2Gy-18" target="BIx6RFWFegddTs1Po2Gy-9">
          <mxGeometry relative="1" as="geometry" />
        </mxCell>
      </root>
    </mxGraphModel>
  </diagram>
</mxfile>
